<?xml version="1.0" standalone="no"?><svg xmlns="http://www.w3.org/2000/svg" viewBox="0 0 1440 320"><path fill="#1b2a4e" fill-opacity="1" d="M0,256L0,224L41.1,224L41.1,224L82.3,224L82.3,160L123.4,160L123.4,288L164.6,288L164.6,0L205.7,0L205.7,320L246.9,320L246.9,256L288,256L288,64L329.1,64L329.1,288L370.3,288L370.3,96L411.4,96L411.4,96L452.6,96L452.6,64L493.7,64L493.7,64L534.9,64L534.9,160L576,160L576,288L617.1,288L617.1,32L658.3,32L658.3,160L699.4,160L699.4,192L740.6,192L740.6,0L781.7,0L781.7,160L822.9,160L822.9,160L864,160L864,256L905.1,256L905.1,288L946.3,288L946.3,64L987.4,64L987.4,128L1028.6,128L1028.6,64L1069.7,64L1069.7,224L1110.9,224L1110.9,320L1152,320L1152,192L1193.1,192L1193.1,32L1234.3,32L1234.3,64L1275.4,64L1275.4,320L1316.6,320L1316.6,64L1357.7,64L1357.7,160L1398.9,160L1398.9,288L1440,288L1440,320L1398.9,320L1398.9,320L1357.7,320L1357.7,320L1316.6,320L1316.6,320L1275.4,320L1275.4,320L1234.3,320L1234.3,320L1193.1,320L1193.1,320L1152,320L1152,320L1110.9,320L1110.9,320L1069.7,320L1069.7,320L1028.6,320L1028.6,320L987.4,320L987.4,320L946.3,320L946.3,320L905.1,320L905.1,320L864,320L864,320L822.9,320L822.9,320L781.7,320L781.7,320L740.6,320L740.6,320L699.4,320L699.4,320L658.3,320L658.3,320L617.1,320L617.1,320L576,320L576,320L534.9,320L534.9,320L493.7,320L493.7,320L452.6,320L452.6,320L411.4,320L411.4,320L370.3,320L370.3,320L329.1,320L329.1,320L288,320L288,320L246.9,320L246.9,320L205.7,320L205.7,320L164.6,320L164.6,320L123.4,320L123.4,320L82.3,320L82.3,320L41.1,320L41.1,320L0,320L0,320Z"></path></svg>